<?xml version="1.0" encoding="utf-8" standalone="no"?>
<!DOCTYPE svg PUBLIC "-//W3C//DTD SVG 1.1//EN"
  "http://www.w3.org/Graphics/SVG/1.1/DTD/svg11.dtd">
<svg xmlns:xlink="http://www.w3.org/1999/xlink" width="712.615pt" height="423.465pt" viewBox="0 0 712.615 423.465" xmlns="http://www.w3.org/2000/svg" version="1.1">
 <metadata>
  <rdf:RDF xmlns:dc="http://purl.org/dc/elements/1.1/" xmlns:cc="http://creativecommons.org/ns#" xmlns:rdf="http://www.w3.org/1999/02/22-rdf-syntax-ns#">
   <cc:Work>
    <dc:type rdf:resource="http://purl.org/dc/dcmitype/StillImage"/>
    <dc:date>2025-09-04T21:17:35.031576</dc:date>
    <dc:format>image/svg+xml</dc:format>
    <dc:creator>
     <cc:Agent>
      <dc:title>Matplotlib v3.7.2, https://matplotlib.org/</dc:title>
     </cc:Agent>
    </dc:creator>
   </cc:Work>
  </rdf:RDF>
 </metadata>
 <defs>
  <style type="text/css">*{stroke-linejoin: round; stroke-linecap: butt}</style>
 </defs>
 <g id="figure_1">
  <g id="patch_1">
   <path d="M 0 423.465 
L 712.615 423.465 
L 712.615 0 
L 0 0 
z
" style="fill: #ffffff"/>
  </g>
  <g id="axes_1">
   <g id="patch_2">
    <path d="M 47.6525 382.0375 
L 699.0525 382.0375 
L 699.0525 39.3575 
L 47.6525 39.3575 
z
" style="fill: #ffffff"/>
   </g>
   <g id="matplotlib.axis_1">
    <g id="xtick_1">
     <g id="line2d_1">
      <path d="M 167.297398 382.0375 
L 167.297398 39.3575 
" clip-path="url(#p7c4cc65589)" style="fill: none; stroke-dasharray: 2.96,1.28; stroke-dashoffset: 0; stroke: #b0b0b0; stroke-opacity: 0.7; stroke-width: 0.8"/>
     </g>
     <g id="line2d_2">
      <defs>
       <path id="m894b901a14" d="M 0 0 
L 0 3.5 
" style="stroke: #000000; stroke-width: 0.8"/>
      </defs>
      <g>
       <use xlink:href="#m894b901a14" x="167.297398" y="382.0375" style="stroke: #000000; stroke-width: 0.8"/>
      </g>
     </g>
     <g id="text_1">
      <!-- 10 -->
      <g transform="translate(160.934898 396.635937) scale(0.1 -0.1)">
       <defs>
        <path id="DejaVuSans-31" d="M 794 531 
L 1825 531 
L 1825 4091 
L 703 3866 
L 703 4441 
L 1819 4666 
L 2450 4666 
L 2450 531 
L 3481 531 
L 3481 0 
L 794 0 
L 794 531 
z
" transform="scale(0.015625)"/>
        <path id="DejaVuSans-30" d="M 2034 4250 
Q 1547 4250 1301 3770 
Q 1056 3291 1056 2328 
Q 1056 1369 1301 889 
Q 1547 409 2034 409 
Q 2525 409 2770 889 
Q 3016 1369 3016 2328 
Q 3016 3291 2770 3770 
Q 2525 4250 2034 4250 
z
M 2034 4750 
Q 2819 4750 3233 4129 
Q 3647 3509 3647 2328 
Q 3647 1150 3233 529 
Q 2819 -91 2034 -91 
Q 1250 -91 836 529 
Q 422 1150 422 2328 
Q 422 3509 836 4129 
Q 1250 4750 2034 4750 
z
" transform="scale(0.015625)"/>
       </defs>
       <use xlink:href="#DejaVuSans-31"/>
       <use xlink:href="#DejaVuSans-30" x="63.623047"/>
      </g>
     </g>
    </g>
    <g id="xtick_2">
     <g id="line2d_3">
      <path d="M 300.236173 382.0375 
L 300.236173 39.3575 
" clip-path="url(#p7c4cc65589)" style="fill: none; stroke-dasharray: 2.96,1.28; stroke-dashoffset: 0; stroke: #b0b0b0; stroke-opacity: 0.7; stroke-width: 0.8"/>
     </g>
     <g id="line2d_4">
      <g>
       <use xlink:href="#m894b901a14" x="300.236173" y="382.0375" style="stroke: #000000; stroke-width: 0.8"/>
      </g>
     </g>
     <g id="text_2">
      <!-- 20 -->
      <g transform="translate(293.873673 396.635937) scale(0.1 -0.1)">
       <defs>
        <path id="DejaVuSans-32" d="M 1228 531 
L 3431 531 
L 3431 0 
L 469 0 
L 469 531 
Q 828 903 1448 1529 
Q 2069 2156 2228 2338 
Q 2531 2678 2651 2914 
Q 2772 3150 2772 3378 
Q 2772 3750 2511 3984 
Q 2250 4219 1831 4219 
Q 1534 4219 1204 4116 
Q 875 4013 500 3803 
L 500 4441 
Q 881 4594 1212 4672 
Q 1544 4750 1819 4750 
Q 2544 4750 2975 4387 
Q 3406 4025 3406 3419 
Q 3406 3131 3298 2873 
Q 3191 2616 2906 2266 
Q 2828 2175 2409 1742 
Q 1991 1309 1228 531 
z
" transform="scale(0.015625)"/>
       </defs>
       <use xlink:href="#DejaVuSans-32"/>
       <use xlink:href="#DejaVuSans-30" x="63.623047"/>
      </g>
     </g>
    </g>
    <g id="xtick_3">
     <g id="line2d_5">
      <path d="M 433.174949 382.0375 
L 433.174949 39.3575 
" clip-path="url(#p7c4cc65589)" style="fill: none; stroke-dasharray: 2.96,1.28; stroke-dashoffset: 0; stroke: #b0b0b0; stroke-opacity: 0.7; stroke-width: 0.8"/>
     </g>
     <g id="line2d_6">
      <g>
       <use xlink:href="#m894b901a14" x="433.174949" y="382.0375" style="stroke: #000000; stroke-width: 0.8"/>
      </g>
     </g>
     <g id="text_3">
      <!-- 30 -->
      <g transform="translate(426.812449 396.635937) scale(0.1 -0.1)">
       <defs>
        <path id="DejaVuSans-33" d="M 2597 2516 
Q 3050 2419 3304 2112 
Q 3559 1806 3559 1356 
Q 3559 666 3084 287 
Q 2609 -91 1734 -91 
Q 1441 -91 1130 -33 
Q 819 25 488 141 
L 488 750 
Q 750 597 1062 519 
Q 1375 441 1716 441 
Q 2309 441 2620 675 
Q 2931 909 2931 1356 
Q 2931 1769 2642 2001 
Q 2353 2234 1838 2234 
L 1294 2234 
L 1294 2753 
L 1863 2753 
Q 2328 2753 2575 2939 
Q 2822 3125 2822 3475 
Q 2822 3834 2567 4026 
Q 2313 4219 1838 4219 
Q 1578 4219 1281 4162 
Q 984 4106 628 3988 
L 628 4550 
Q 988 4650 1302 4700 
Q 1616 4750 1894 4750 
Q 2613 4750 3031 4423 
Q 3450 4097 3450 3541 
Q 3450 3153 3228 2886 
Q 3006 2619 2597 2516 
z
" transform="scale(0.015625)"/>
       </defs>
       <use xlink:href="#DejaVuSans-33"/>
       <use xlink:href="#DejaVuSans-30" x="63.623047"/>
      </g>
     </g>
    </g>
    <g id="xtick_4">
     <g id="line2d_7">
      <path d="M 566.113724 382.0375 
L 566.113724 39.3575 
" clip-path="url(#p7c4cc65589)" style="fill: none; stroke-dasharray: 2.96,1.28; stroke-dashoffset: 0; stroke: #b0b0b0; stroke-opacity: 0.7; stroke-width: 0.8"/>
     </g>
     <g id="line2d_8">
      <g>
       <use xlink:href="#m894b901a14" x="566.113724" y="382.0375" style="stroke: #000000; stroke-width: 0.8"/>
      </g>
     </g>
     <g id="text_4">
      <!-- 40 -->
      <g transform="translate(559.751224 396.635937) scale(0.1 -0.1)">
       <defs>
        <path id="DejaVuSans-34" d="M 2419 4116 
L 825 1625 
L 2419 1625 
L 2419 4116 
z
M 2253 4666 
L 3047 4666 
L 3047 1625 
L 3713 1625 
L 3713 1100 
L 3047 1100 
L 3047 0 
L 2419 0 
L 2419 1100 
L 313 1100 
L 313 1709 
L 2253 4666 
z
" transform="scale(0.015625)"/>
       </defs>
       <use xlink:href="#DejaVuSans-34"/>
       <use xlink:href="#DejaVuSans-30" x="63.623047"/>
      </g>
     </g>
    </g>
    <g id="xtick_5">
     <g id="line2d_9">
      <path d="M 699.0525 382.0375 
L 699.0525 39.3575 
" clip-path="url(#p7c4cc65589)" style="fill: none; stroke-dasharray: 2.96,1.28; stroke-dashoffset: 0; stroke: #b0b0b0; stroke-opacity: 0.7; stroke-width: 0.8"/>
     </g>
     <g id="line2d_10">
      <g>
       <use xlink:href="#m894b901a14" x="699.0525" y="382.0375" style="stroke: #000000; stroke-width: 0.8"/>
      </g>
     </g>
     <g id="text_5">
      <!-- 50 -->
      <g transform="translate(692.69 396.635937) scale(0.1 -0.1)">
       <defs>
        <path id="DejaVuSans-35" d="M 691 4666 
L 3169 4666 
L 3169 4134 
L 1269 4134 
L 1269 2991 
Q 1406 3038 1543 3061 
Q 1681 3084 1819 3084 
Q 2600 3084 3056 2656 
Q 3513 2228 3513 1497 
Q 3513 744 3044 326 
Q 2575 -91 1722 -91 
Q 1428 -91 1123 -41 
Q 819 9 494 109 
L 494 744 
Q 775 591 1075 516 
Q 1375 441 1709 441 
Q 2250 441 2565 725 
Q 2881 1009 2881 1497 
Q 2881 1984 2565 2268 
Q 2250 2553 1709 2553 
Q 1456 2553 1204 2497 
Q 953 2441 691 2322 
L 691 4666 
z
" transform="scale(0.015625)"/>
       </defs>
       <use xlink:href="#DejaVuSans-35"/>
       <use xlink:href="#DejaVuSans-30" x="63.623047"/>
      </g>
     </g>
    </g>
    <g id="text_6">
     <!-- Epoch -->
     <g transform="translate(349.618125 413.353437) scale(0.14 -0.14)">
      <defs>
       <path id="DejaVuSans-Bold-45" d="M 588 4666 
L 3834 4666 
L 3834 3756 
L 1791 3756 
L 1791 2888 
L 3713 2888 
L 3713 1978 
L 1791 1978 
L 1791 909 
L 3903 909 
L 3903 0 
L 588 0 
L 588 4666 
z
" transform="scale(0.015625)"/>
       <path id="DejaVuSans-Bold-70" d="M 1656 506 
L 1656 -1331 
L 538 -1331 
L 538 3500 
L 1656 3500 
L 1656 2988 
Q 1888 3294 2169 3439 
Q 2450 3584 2816 3584 
Q 3463 3584 3878 3070 
Q 4294 2556 4294 1747 
Q 4294 938 3878 423 
Q 3463 -91 2816 -91 
Q 2450 -91 2169 54 
Q 1888 200 1656 506 
z
M 2400 2772 
Q 2041 2772 1848 2508 
Q 1656 2244 1656 1747 
Q 1656 1250 1848 986 
Q 2041 722 2400 722 
Q 2759 722 2948 984 
Q 3138 1247 3138 1747 
Q 3138 2247 2948 2509 
Q 2759 2772 2400 2772 
z
" transform="scale(0.015625)"/>
       <path id="DejaVuSans-Bold-6f" d="M 2203 2784 
Q 1831 2784 1636 2517 
Q 1441 2250 1441 1747 
Q 1441 1244 1636 976 
Q 1831 709 2203 709 
Q 2569 709 2762 976 
Q 2956 1244 2956 1747 
Q 2956 2250 2762 2517 
Q 2569 2784 2203 2784 
z
M 2203 3584 
Q 3106 3584 3614 3096 
Q 4122 2609 4122 1747 
Q 4122 884 3614 396 
Q 3106 -91 2203 -91 
Q 1297 -91 786 396 
Q 275 884 275 1747 
Q 275 2609 786 3096 
Q 1297 3584 2203 3584 
z
" transform="scale(0.015625)"/>
       <path id="DejaVuSans-Bold-63" d="M 3366 3391 
L 3366 2478 
Q 3138 2634 2908 2709 
Q 2678 2784 2431 2784 
Q 1963 2784 1702 2511 
Q 1441 2238 1441 1747 
Q 1441 1256 1702 982 
Q 1963 709 2431 709 
Q 2694 709 2930 787 
Q 3166 866 3366 1019 
L 3366 103 
Q 3103 6 2833 -42 
Q 2563 -91 2291 -91 
Q 1344 -91 809 395 
Q 275 881 275 1747 
Q 275 2613 809 3098 
Q 1344 3584 2291 3584 
Q 2566 3584 2833 3536 
Q 3100 3488 3366 3391 
z
" transform="scale(0.015625)"/>
       <path id="DejaVuSans-Bold-68" d="M 4056 2131 
L 4056 0 
L 2931 0 
L 2931 347 
L 2931 1625 
Q 2931 2084 2911 2256 
Q 2891 2428 2841 2509 
Q 2775 2619 2662 2680 
Q 2550 2741 2406 2741 
Q 2056 2741 1856 2470 
Q 1656 2200 1656 1722 
L 1656 0 
L 538 0 
L 538 4863 
L 1656 4863 
L 1656 2988 
Q 1909 3294 2193 3439 
Q 2478 3584 2822 3584 
Q 3428 3584 3742 3212 
Q 4056 2841 4056 2131 
z
" transform="scale(0.015625)"/>
      </defs>
      <use xlink:href="#DejaVuSans-Bold-45"/>
      <use xlink:href="#DejaVuSans-Bold-70" x="68.310547"/>
      <use xlink:href="#DejaVuSans-Bold-6f" x="139.892578"/>
      <use xlink:href="#DejaVuSans-Bold-63" x="208.59375"/>
      <use xlink:href="#DejaVuSans-Bold-68" x="267.871094"/>
     </g>
    </g>
   </g>
   <g id="matplotlib.axis_2">
    <g id="ytick_1">
     <g id="line2d_11">
      <path d="M 47.6525 382.0375 
L 699.0525 382.0375 
" clip-path="url(#p7c4cc65589)" style="fill: none; stroke-dasharray: 2.96,1.28; stroke-dashoffset: 0; stroke: #b0b0b0; stroke-opacity: 0.7; stroke-width: 0.8"/>
     </g>
     <g id="line2d_12">
      <defs>
       <path id="m22ea4677cc" d="M 0 0 
L -3.5 0 
" style="stroke: #000000; stroke-width: 0.8"/>
      </defs>
      <g>
       <use xlink:href="#m22ea4677cc" x="47.6525" y="382.0375" style="stroke: #000000; stroke-width: 0.8"/>
      </g>
     </g>
     <g id="text_7">
      <!-- 0.0 -->
      <g transform="translate(24.749375 385.836719) scale(0.1 -0.1)">
       <defs>
        <path id="DejaVuSans-2e" d="M 684 794 
L 1344 794 
L 1344 0 
L 684 0 
L 684 794 
z
" transform="scale(0.015625)"/>
       </defs>
       <use xlink:href="#DejaVuSans-30"/>
       <use xlink:href="#DejaVuSans-2e" x="63.623047"/>
       <use xlink:href="#DejaVuSans-30" x="95.410156"/>
      </g>
     </g>
    </g>
    <g id="ytick_2">
     <g id="line2d_13">
      <path d="M 47.6525 324.924167 
L 699.0525 324.924167 
" clip-path="url(#p7c4cc65589)" style="fill: none; stroke-dasharray: 2.96,1.28; stroke-dashoffset: 0; stroke: #b0b0b0; stroke-opacity: 0.7; stroke-width: 0.8"/>
     </g>
     <g id="line2d_14">
      <g>
       <use xlink:href="#m22ea4677cc" x="47.6525" y="324.924167" style="stroke: #000000; stroke-width: 0.8"/>
      </g>
     </g>
     <g id="text_8">
      <!-- 0.1 -->
      <g transform="translate(24.749375 328.723385) scale(0.1 -0.1)">
       <use xlink:href="#DejaVuSans-30"/>
       <use xlink:href="#DejaVuSans-2e" x="63.623047"/>
       <use xlink:href="#DejaVuSans-31" x="95.410156"/>
      </g>
     </g>
    </g>
    <g id="ytick_3">
     <g id="line2d_15">
      <path d="M 47.6525 267.810833 
L 699.0525 267.810833 
" clip-path="url(#p7c4cc65589)" style="fill: none; stroke-dasharray: 2.96,1.28; stroke-dashoffset: 0; stroke: #b0b0b0; stroke-opacity: 0.7; stroke-width: 0.8"/>
     </g>
     <g id="line2d_16">
      <g>
       <use xlink:href="#m22ea4677cc" x="47.6525" y="267.810833" style="stroke: #000000; stroke-width: 0.8"/>
      </g>
     </g>
     <g id="text_9">
      <!-- 0.2 -->
      <g transform="translate(24.749375 271.610052) scale(0.1 -0.1)">
       <use xlink:href="#DejaVuSans-30"/>
       <use xlink:href="#DejaVuSans-2e" x="63.623047"/>
       <use xlink:href="#DejaVuSans-32" x="95.410156"/>
      </g>
     </g>
    </g>
    <g id="ytick_4">
     <g id="line2d_17">
      <path d="M 47.6525 210.6975 
L 699.0525 210.6975 
" clip-path="url(#p7c4cc65589)" style="fill: none; stroke-dasharray: 2.96,1.28; stroke-dashoffset: 0; stroke: #b0b0b0; stroke-opacity: 0.7; stroke-width: 0.8"/>
     </g>
     <g id="line2d_18">
      <g>
       <use xlink:href="#m22ea4677cc" x="47.6525" y="210.6975" style="stroke: #000000; stroke-width: 0.8"/>
      </g>
     </g>
     <g id="text_10">
      <!-- 0.3 -->
      <g transform="translate(24.749375 214.496719) scale(0.1 -0.1)">
       <use xlink:href="#DejaVuSans-30"/>
       <use xlink:href="#DejaVuSans-2e" x="63.623047"/>
       <use xlink:href="#DejaVuSans-33" x="95.410156"/>
      </g>
     </g>
    </g>
    <g id="ytick_5">
     <g id="line2d_19">
      <path d="M 47.6525 153.584167 
L 699.0525 153.584167 
" clip-path="url(#p7c4cc65589)" style="fill: none; stroke-dasharray: 2.96,1.28; stroke-dashoffset: 0; stroke: #b0b0b0; stroke-opacity: 0.7; stroke-width: 0.8"/>
     </g>
     <g id="line2d_20">
      <g>
       <use xlink:href="#m22ea4677cc" x="47.6525" y="153.584167" style="stroke: #000000; stroke-width: 0.8"/>
      </g>
     </g>
     <g id="text_11">
      <!-- 0.4 -->
      <g transform="translate(24.749375 157.383385) scale(0.1 -0.1)">
       <use xlink:href="#DejaVuSans-30"/>
       <use xlink:href="#DejaVuSans-2e" x="63.623047"/>
       <use xlink:href="#DejaVuSans-34" x="95.410156"/>
      </g>
     </g>
    </g>
    <g id="ytick_6">
     <g id="line2d_21">
      <path d="M 47.6525 96.470833 
L 699.0525 96.470833 
" clip-path="url(#p7c4cc65589)" style="fill: none; stroke-dasharray: 2.96,1.28; stroke-dashoffset: 0; stroke: #b0b0b0; stroke-opacity: 0.7; stroke-width: 0.8"/>
     </g>
     <g id="line2d_22">
      <g>
       <use xlink:href="#m22ea4677cc" x="47.6525" y="96.470833" style="stroke: #000000; stroke-width: 0.8"/>
      </g>
     </g>
     <g id="text_12">
      <!-- 0.5 -->
      <g transform="translate(24.749375 100.270052) scale(0.1 -0.1)">
       <use xlink:href="#DejaVuSans-30"/>
       <use xlink:href="#DejaVuSans-2e" x="63.623047"/>
       <use xlink:href="#DejaVuSans-35" x="95.410156"/>
      </g>
     </g>
    </g>
    <g id="ytick_7">
     <g id="line2d_23">
      <path d="M 47.6525 39.3575 
L 699.0525 39.3575 
" clip-path="url(#p7c4cc65589)" style="fill: none; stroke-dasharray: 2.96,1.28; stroke-dashoffset: 0; stroke: #b0b0b0; stroke-opacity: 0.7; stroke-width: 0.8"/>
     </g>
     <g id="line2d_24">
      <g>
       <use xlink:href="#m22ea4677cc" x="47.6525" y="39.3575" style="stroke: #000000; stroke-width: 0.8"/>
      </g>
     </g>
     <g id="text_13">
      <!-- 0.6 -->
      <g transform="translate(24.749375 43.156719) scale(0.1 -0.1)">
       <defs>
        <path id="DejaVuSans-36" d="M 2113 2584 
Q 1688 2584 1439 2293 
Q 1191 2003 1191 1497 
Q 1191 994 1439 701 
Q 1688 409 2113 409 
Q 2538 409 2786 701 
Q 3034 994 3034 1497 
Q 3034 2003 2786 2293 
Q 2538 2584 2113 2584 
z
M 3366 4563 
L 3366 3988 
Q 3128 4100 2886 4159 
Q 2644 4219 2406 4219 
Q 1781 4219 1451 3797 
Q 1122 3375 1075 2522 
Q 1259 2794 1537 2939 
Q 1816 3084 2150 3084 
Q 2853 3084 3261 2657 
Q 3669 2231 3669 1497 
Q 3669 778 3244 343 
Q 2819 -91 2113 -91 
Q 1303 -91 875 529 
Q 447 1150 447 2328 
Q 447 3434 972 4092 
Q 1497 4750 2381 4750 
Q 2619 4750 2861 4703 
Q 3103 4656 3366 4563 
z
" transform="scale(0.015625)"/>
       </defs>
       <use xlink:href="#DejaVuSans-30"/>
       <use xlink:href="#DejaVuSans-2e" x="63.623047"/>
       <use xlink:href="#DejaVuSans-36" x="95.410156"/>
      </g>
     </g>
    </g>
    <g id="text_14">
     <!-- Loss -->
     <g transform="translate(17.837813 228.299219) rotate(-90) scale(0.14 -0.14)">
      <defs>
       <path id="DejaVuSans-Bold-4c" d="M 588 4666 
L 1791 4666 
L 1791 909 
L 3903 909 
L 3903 0 
L 588 0 
L 588 4666 
z
" transform="scale(0.015625)"/>
       <path id="DejaVuSans-Bold-73" d="M 3272 3391 
L 3272 2541 
Q 2913 2691 2578 2766 
Q 2244 2841 1947 2841 
Q 1628 2841 1473 2761 
Q 1319 2681 1319 2516 
Q 1319 2381 1436 2309 
Q 1553 2238 1856 2203 
L 2053 2175 
Q 2913 2066 3209 1816 
Q 3506 1566 3506 1031 
Q 3506 472 3093 190 
Q 2681 -91 1863 -91 
Q 1516 -91 1145 -36 
Q 775 19 384 128 
L 384 978 
Q 719 816 1070 734 
Q 1422 653 1784 653 
Q 2113 653 2278 743 
Q 2444 834 2444 1013 
Q 2444 1163 2330 1236 
Q 2216 1309 1875 1350 
L 1678 1375 
Q 931 1469 631 1722 
Q 331 1975 331 2491 
Q 331 3047 712 3315 
Q 1094 3584 1881 3584 
Q 2191 3584 2531 3537 
Q 2872 3491 3272 3391 
z
" transform="scale(0.015625)"/>
      </defs>
      <use xlink:href="#DejaVuSans-Bold-4c"/>
      <use xlink:href="#DejaVuSans-Bold-6f" x="63.720703"/>
      <use xlink:href="#DejaVuSans-Bold-73" x="132.421875"/>
      <use xlink:href="#DejaVuSans-Bold-73" x="191.943359"/>
     </g>
    </g>
   </g>
   <g id="line2d_25">
    <path d="M 47.6525 57.976447 
L 60.946378 165.063947 
L 74.240255 198.932153 
L 87.534133 222.234393 
L 100.82801 240.33932 
L 114.121888 259.243833 
L 127.415765 271.637427 
L 140.709643 284.145247 
L 154.00352 294.99678 
L 167.297398 303.678007 
L 180.591276 310.9314 
L 193.885153 319.041493 
L 207.179031 325.66664 
L 220.472908 330.578387 
L 233.766786 335.718587 
L 247.060663 340.23054 
L 260.354541 344.68538 
L 273.648418 349.083107 
L 286.942296 352.452793 
L 300.236173 355.422687 
L 313.530051 358.678147 
L 326.823929 361.191133 
L 340.117806 363.818347 
L 353.411684 366.10288 
L 366.705561 368.15896 
L 379.999439 370.0437 
L 393.293316 371.642873 
L 406.587194 373.12782 
L 419.881071 374.384313 
L 433.174949 375.583693 
L 446.468827 376.55462 
L 459.762704 377.525547 
L 473.056582 378.26802 
L 486.350459 378.95338 
L 499.644337 379.524513 
L 512.938214 379.98142 
L 526.232092 380.438327 
L 539.525969 380.723893 
L 552.819847 381.00946 
L 566.113724 381.237913 
L 579.407602 381.409253 
L 592.70148 381.580593 
L 605.995357 381.69482 
L 619.289235 381.751933 
L 632.583112 381.809047 
L 645.87699 381.86616 
L 659.170867 381.923273 
L 672.464745 381.923273 
L 685.758622 381.980387 
L 699.0525 381.980387 
" clip-path="url(#p7c4cc65589)" style="fill: none; stroke: #2e86ab; stroke-width: 2.5; stroke-linecap: square"/>
    <defs>
     <path id="m221dbbfab5" d="M 0 1.5 
C 0.397805 1.5 0.77937 1.341951 1.06066 1.06066 
C 1.341951 0.77937 1.5 0.397805 1.5 0 
C 1.5 -0.397805 1.341951 -0.77937 1.06066 -1.06066 
C 0.77937 -1.341951 0.397805 -1.5 0 -1.5 
C -0.397805 -1.5 -0.77937 -1.341951 -1.06066 -1.06066 
C -1.341951 -0.77937 -1.5 -0.397805 -1.5 0 
C -1.5 0.397805 -1.341951 0.77937 -1.06066 1.06066 
C -0.77937 1.341951 -0.397805 1.5 0 1.5 
z
" style="stroke: #2e86ab"/>
    </defs>
    <g clip-path="url(#p7c4cc65589)">
     <use xlink:href="#m221dbbfab5" x="47.6525" y="57.976447" style="fill: #2e86ab; stroke: #2e86ab"/>
     <use xlink:href="#m221dbbfab5" x="60.946378" y="165.063947" style="fill: #2e86ab; stroke: #2e86ab"/>
     <use xlink:href="#m221dbbfab5" x="74.240255" y="198.932153" style="fill: #2e86ab; stroke: #2e86ab"/>
     <use xlink:href="#m221dbbfab5" x="87.534133" y="222.234393" style="fill: #2e86ab; stroke: #2e86ab"/>
     <use xlink:href="#m221dbbfab5" x="100.82801" y="240.33932" style="fill: #2e86ab; stroke: #2e86ab"/>
     <use xlink:href="#m221dbbfab5" x="114.121888" y="259.243833" style="fill: #2e86ab; stroke: #2e86ab"/>
     <use xlink:href="#m221dbbfab5" x="127.415765" y="271.637427" style="fill: #2e86ab; stroke: #2e86ab"/>
     <use xlink:href="#m221dbbfab5" x="140.709643" y="284.145247" style="fill: #2e86ab; stroke: #2e86ab"/>
     <use xlink:href="#m221dbbfab5" x="154.00352" y="294.99678" style="fill: #2e86ab; stroke: #2e86ab"/>
     <use xlink:href="#m221dbbfab5" x="167.297398" y="303.678007" style="fill: #2e86ab; stroke: #2e86ab"/>
     <use xlink:href="#m221dbbfab5" x="180.591276" y="310.9314" style="fill: #2e86ab; stroke: #2e86ab"/>
     <use xlink:href="#m221dbbfab5" x="193.885153" y="319.041493" style="fill: #2e86ab; stroke: #2e86ab"/>
     <use xlink:href="#m221dbbfab5" x="207.179031" y="325.66664" style="fill: #2e86ab; stroke: #2e86ab"/>
     <use xlink:href="#m221dbbfab5" x="220.472908" y="330.578387" style="fill: #2e86ab; stroke: #2e86ab"/>
     <use xlink:href="#m221dbbfab5" x="233.766786" y="335.718587" style="fill: #2e86ab; stroke: #2e86ab"/>
     <use xlink:href="#m221dbbfab5" x="247.060663" y="340.23054" style="fill: #2e86ab; stroke: #2e86ab"/>
     <use xlink:href="#m221dbbfab5" x="260.354541" y="344.68538" style="fill: #2e86ab; stroke: #2e86ab"/>
     <use xlink:href="#m221dbbfab5" x="273.648418" y="349.083107" style="fill: #2e86ab; stroke: #2e86ab"/>
     <use xlink:href="#m221dbbfab5" x="286.942296" y="352.452793" style="fill: #2e86ab; stroke: #2e86ab"/>
     <use xlink:href="#m221dbbfab5" x="300.236173" y="355.422687" style="fill: #2e86ab; stroke: #2e86ab"/>
     <use xlink:href="#m221dbbfab5" x="313.530051" y="358.678147" style="fill: #2e86ab; stroke: #2e86ab"/>
     <use xlink:href="#m221dbbfab5" x="326.823929" y="361.191133" style="fill: #2e86ab; stroke: #2e86ab"/>
     <use xlink:href="#m221dbbfab5" x="340.117806" y="363.818347" style="fill: #2e86ab; stroke: #2e86ab"/>
     <use xlink:href="#m221dbbfab5" x="353.411684" y="366.10288" style="fill: #2e86ab; stroke: #2e86ab"/>
     <use xlink:href="#m221dbbfab5" x="366.705561" y="368.15896" style="fill: #2e86ab; stroke: #2e86ab"/>
     <use xlink:href="#m221dbbfab5" x="379.999439" y="370.0437" style="fill: #2e86ab; stroke: #2e86ab"/>
     <use xlink:href="#m221dbbfab5" x="393.293316" y="371.642873" style="fill: #2e86ab; stroke: #2e86ab"/>
     <use xlink:href="#m221dbbfab5" x="406.587194" y="373.12782" style="fill: #2e86ab; stroke: #2e86ab"/>
     <use xlink:href="#m221dbbfab5" x="419.881071" y="374.384313" style="fill: #2e86ab; stroke: #2e86ab"/>
     <use xlink:href="#m221dbbfab5" x="433.174949" y="375.583693" style="fill: #2e86ab; stroke: #2e86ab"/>
     <use xlink:href="#m221dbbfab5" x="446.468827" y="376.55462" style="fill: #2e86ab; stroke: #2e86ab"/>
     <use xlink:href="#m221dbbfab5" x="459.762704" y="377.525547" style="fill: #2e86ab; stroke: #2e86ab"/>
     <use xlink:href="#m221dbbfab5" x="473.056582" y="378.26802" style="fill: #2e86ab; stroke: #2e86ab"/>
     <use xlink:href="#m221dbbfab5" x="486.350459" y="378.95338" style="fill: #2e86ab; stroke: #2e86ab"/>
     <use xlink:href="#m221dbbfab5" x="499.644337" y="379.524513" style="fill: #2e86ab; stroke: #2e86ab"/>
     <use xlink:href="#m221dbbfab5" x="512.938214" y="379.98142" style="fill: #2e86ab; stroke: #2e86ab"/>
     <use xlink:href="#m221dbbfab5" x="526.232092" y="380.438327" style="fill: #2e86ab; stroke: #2e86ab"/>
     <use xlink:href="#m221dbbfab5" x="539.525969" y="380.723893" style="fill: #2e86ab; stroke: #2e86ab"/>
     <use xlink:href="#m221dbbfab5" x="552.819847" y="381.00946" style="fill: #2e86ab; stroke: #2e86ab"/>
     <use xlink:href="#m221dbbfab5" x="566.113724" y="381.237913" style="fill: #2e86ab; stroke: #2e86ab"/>
     <use xlink:href="#m221dbbfab5" x="579.407602" y="381.409253" style="fill: #2e86ab; stroke: #2e86ab"/>
     <use xlink:href="#m221dbbfab5" x="592.70148" y="381.580593" style="fill: #2e86ab; stroke: #2e86ab"/>
     <use xlink:href="#m221dbbfab5" x="605.995357" y="381.69482" style="fill: #2e86ab; stroke: #2e86ab"/>
     <use xlink:href="#m221dbbfab5" x="619.289235" y="381.751933" style="fill: #2e86ab; stroke: #2e86ab"/>
     <use xlink:href="#m221dbbfab5" x="632.583112" y="381.809047" style="fill: #2e86ab; stroke: #2e86ab"/>
     <use xlink:href="#m221dbbfab5" x="645.87699" y="381.86616" style="fill: #2e86ab; stroke: #2e86ab"/>
     <use xlink:href="#m221dbbfab5" x="659.170867" y="381.923273" style="fill: #2e86ab; stroke: #2e86ab"/>
     <use xlink:href="#m221dbbfab5" x="672.464745" y="381.923273" style="fill: #2e86ab; stroke: #2e86ab"/>
     <use xlink:href="#m221dbbfab5" x="685.758622" y="381.980387" style="fill: #2e86ab; stroke: #2e86ab"/>
     <use xlink:href="#m221dbbfab5" x="699.0525" y="381.980387" style="fill: #2e86ab; stroke: #2e86ab"/>
    </g>
   </g>
   <g id="line2d_26">
    <path d="M 47.6525 169.518787 
L 60.946378 198.303907 
L 74.240255 225.718307 
L 87.534133 240.053753 
L 100.82801 258.901153 
L 114.121888 277.34876 
L 127.415765 291.56998 
L 140.709643 295.567913 
L 154.00352 298.42358 
L 167.297398 314.757993 
L 180.591276 315.38624 
L 193.885153 324.6386 
L 207.179031 329.550347 
L 220.472908 336.860853 
L 233.766786 339.316727 
L 247.060663 341.715487 
L 260.354541 347.141253 
L 273.648418 352.110113 
L 286.942296 351.88166 
L 300.236173 355.022893 
L 313.530051 358.792373 
L 326.823929 361.4767 
L 340.117806 363.589893 
L 353.411684 365.988653 
L 366.705561 367.873393 
L 379.999439 369.70102 
L 393.293316 371.58576 
L 406.587194 373.070707 
L 419.881071 374.15586 
L 433.174949 375.640807 
L 446.468827 376.783073 
L 459.762704 377.639773 
L 473.056582 378.43936 
L 486.350459 379.12472 
L 499.644337 379.63874 
L 512.938214 380.095647 
L 526.232092 380.49544 
L 539.525969 380.781007 
L 552.819847 381.066573 
L 566.113724 381.295027 
L 579.407602 381.466367 
L 592.70148 381.580593 
L 605.995357 381.69482 
L 619.289235 381.809047 
L 632.583112 381.86616 
L 645.87699 381.923273 
L 659.170867 381.923273 
L 672.464745 381.980387 
L 685.758622 381.980387 
L 699.0525 381.980387 
" clip-path="url(#p7c4cc65589)" style="fill: none; stroke: #a23b72; stroke-width: 2.5; stroke-linecap: square"/>
    <defs>
     <path id="mf46094b8b2" d="M -1.5 1.5 
L 1.5 1.5 
L 1.5 -1.5 
L -1.5 -1.5 
z
" style="stroke: #a23b72; stroke-linejoin: miter"/>
    </defs>
    <g clip-path="url(#p7c4cc65589)">
     <use xlink:href="#mf46094b8b2" x="47.6525" y="169.518787" style="fill: #a23b72; stroke: #a23b72; stroke-linejoin: miter"/>
     <use xlink:href="#mf46094b8b2" x="60.946378" y="198.303907" style="fill: #a23b72; stroke: #a23b72; stroke-linejoin: miter"/>
     <use xlink:href="#mf46094b8b2" x="74.240255" y="225.718307" style="fill: #a23b72; stroke: #a23b72; stroke-linejoin: miter"/>
     <use xlink:href="#mf46094b8b2" x="87.534133" y="240.053753" style="fill: #a23b72; stroke: #a23b72; stroke-linejoin: miter"/>
     <use xlink:href="#mf46094b8b2" x="100.82801" y="258.901153" style="fill: #a23b72; stroke: #a23b72; stroke-linejoin: miter"/>
     <use xlink:href="#mf46094b8b2" x="114.121888" y="277.34876" style="fill: #a23b72; stroke: #a23b72; stroke-linejoin: miter"/>
     <use xlink:href="#mf46094b8b2" x="127.415765" y="291.56998" style="fill: #a23b72; stroke: #a23b72; stroke-linejoin: miter"/>
     <use xlink:href="#mf46094b8b2" x="140.709643" y="295.567913" style="fill: #a23b72; stroke: #a23b72; stroke-linejoin: miter"/>
     <use xlink:href="#mf46094b8b2" x="154.00352" y="298.42358" style="fill: #a23b72; stroke: #a23b72; stroke-linejoin: miter"/>
     <use xlink:href="#mf46094b8b2" x="167.297398" y="314.757993" style="fill: #a23b72; stroke: #a23b72; stroke-linejoin: miter"/>
     <use xlink:href="#mf46094b8b2" x="180.591276" y="315.38624" style="fill: #a23b72; stroke: #a23b72; stroke-linejoin: miter"/>
     <use xlink:href="#mf46094b8b2" x="193.885153" y="324.6386" style="fill: #a23b72; stroke: #a23b72; stroke-linejoin: miter"/>
     <use xlink:href="#mf46094b8b2" x="207.179031" y="329.550347" style="fill: #a23b72; stroke: #a23b72; stroke-linejoin: miter"/>
     <use xlink:href="#mf46094b8b2" x="220.472908" y="336.860853" style="fill: #a23b72; stroke: #a23b72; stroke-linejoin: miter"/>
     <use xlink:href="#mf46094b8b2" x="233.766786" y="339.316727" style="fill: #a23b72; stroke: #a23b72; stroke-linejoin: miter"/>
     <use xlink:href="#mf46094b8b2" x="247.060663" y="341.715487" style="fill: #a23b72; stroke: #a23b72; stroke-linejoin: miter"/>
     <use xlink:href="#mf46094b8b2" x="260.354541" y="347.141253" style="fill: #a23b72; stroke: #a23b72; stroke-linejoin: miter"/>
     <use xlink:href="#mf46094b8b2" x="273.648418" y="352.110113" style="fill: #a23b72; stroke: #a23b72; stroke-linejoin: miter"/>
     <use xlink:href="#mf46094b8b2" x="286.942296" y="351.88166" style="fill: #a23b72; stroke: #a23b72; stroke-linejoin: miter"/>
     <use xlink:href="#mf46094b8b2" x="300.236173" y="355.022893" style="fill: #a23b72; stroke: #a23b72; stroke-linejoin: miter"/>
     <use xlink:href="#mf46094b8b2" x="313.530051" y="358.792373" style="fill: #a23b72; stroke: #a23b72; stroke-linejoin: miter"/>
     <use xlink:href="#mf46094b8b2" x="326.823929" y="361.4767" style="fill: #a23b72; stroke: #a23b72; stroke-linejoin: miter"/>
     <use xlink:href="#mf46094b8b2" x="340.117806" y="363.589893" style="fill: #a23b72; stroke: #a23b72; stroke-linejoin: miter"/>
     <use xlink:href="#mf46094b8b2" x="353.411684" y="365.988653" style="fill: #a23b72; stroke: #a23b72; stroke-linejoin: miter"/>
     <use xlink:href="#mf46094b8b2" x="366.705561" y="367.873393" style="fill: #a23b72; stroke: #a23b72; stroke-linejoin: miter"/>
     <use xlink:href="#mf46094b8b2" x="379.999439" y="369.70102" style="fill: #a23b72; stroke: #a23b72; stroke-linejoin: miter"/>
     <use xlink:href="#mf46094b8b2" x="393.293316" y="371.58576" style="fill: #a23b72; stroke: #a23b72; stroke-linejoin: miter"/>
     <use xlink:href="#mf46094b8b2" x="406.587194" y="373.070707" style="fill: #a23b72; stroke: #a23b72; stroke-linejoin: miter"/>
     <use xlink:href="#mf46094b8b2" x="419.881071" y="374.15586" style="fill: #a23b72; stroke: #a23b72; stroke-linejoin: miter"/>
     <use xlink:href="#mf46094b8b2" x="433.174949" y="375.640807" style="fill: #a23b72; stroke: #a23b72; stroke-linejoin: miter"/>
     <use xlink:href="#mf46094b8b2" x="446.468827" y="376.783073" style="fill: #a23b72; stroke: #a23b72; stroke-linejoin: miter"/>
     <use xlink:href="#mf46094b8b2" x="459.762704" y="377.639773" style="fill: #a23b72; stroke: #a23b72; stroke-linejoin: miter"/>
     <use xlink:href="#mf46094b8b2" x="473.056582" y="378.43936" style="fill: #a23b72; stroke: #a23b72; stroke-linejoin: miter"/>
     <use xlink:href="#mf46094b8b2" x="486.350459" y="379.12472" style="fill: #a23b72; stroke: #a23b72; stroke-linejoin: miter"/>
     <use xlink:href="#mf46094b8b2" x="499.644337" y="379.63874" style="fill: #a23b72; stroke: #a23b72; stroke-linejoin: miter"/>
     <use xlink:href="#mf46094b8b2" x="512.938214" y="380.095647" style="fill: #a23b72; stroke: #a23b72; stroke-linejoin: miter"/>
     <use xlink:href="#mf46094b8b2" x="526.232092" y="380.49544" style="fill: #a23b72; stroke: #a23b72; stroke-linejoin: miter"/>
     <use xlink:href="#mf46094b8b2" x="539.525969" y="380.781007" style="fill: #a23b72; stroke: #a23b72; stroke-linejoin: miter"/>
     <use xlink:href="#mf46094b8b2" x="552.819847" y="381.066573" style="fill: #a23b72; stroke: #a23b72; stroke-linejoin: miter"/>
     <use xlink:href="#mf46094b8b2" x="566.113724" y="381.295027" style="fill: #a23b72; stroke: #a23b72; stroke-linejoin: miter"/>
     <use xlink:href="#mf46094b8b2" x="579.407602" y="381.466367" style="fill: #a23b72; stroke: #a23b72; stroke-linejoin: miter"/>
     <use xlink:href="#mf46094b8b2" x="592.70148" y="381.580593" style="fill: #a23b72; stroke: #a23b72; stroke-linejoin: miter"/>
     <use xlink:href="#mf46094b8b2" x="605.995357" y="381.69482" style="fill: #a23b72; stroke: #a23b72; stroke-linejoin: miter"/>
     <use xlink:href="#mf46094b8b2" x="619.289235" y="381.809047" style="fill: #a23b72; stroke: #a23b72; stroke-linejoin: miter"/>
     <use xlink:href="#mf46094b8b2" x="632.583112" y="381.86616" style="fill: #a23b72; stroke: #a23b72; stroke-linejoin: miter"/>
     <use xlink:href="#mf46094b8b2" x="645.87699" y="381.923273" style="fill: #a23b72; stroke: #a23b72; stroke-linejoin: miter"/>
     <use xlink:href="#mf46094b8b2" x="659.170867" y="381.923273" style="fill: #a23b72; stroke: #a23b72; stroke-linejoin: miter"/>
     <use xlink:href="#mf46094b8b2" x="672.464745" y="381.980387" style="fill: #a23b72; stroke: #a23b72; stroke-linejoin: miter"/>
     <use xlink:href="#mf46094b8b2" x="685.758622" y="381.980387" style="fill: #a23b72; stroke: #a23b72; stroke-linejoin: miter"/>
     <use xlink:href="#mf46094b8b2" x="699.0525" y="381.980387" style="fill: #a23b72; stroke: #a23b72; stroke-linejoin: miter"/>
    </g>
   </g>
   <g id="patch_3">
    <path d="M 47.6525 382.0375 
L 47.6525 39.3575 
" style="fill: none; stroke: #000000; stroke-width: 0.8; stroke-linejoin: miter; stroke-linecap: square"/>
   </g>
   <g id="patch_4">
    <path d="M 699.0525 382.0375 
L 699.0525 39.3575 
" style="fill: none; stroke: #000000; stroke-width: 0.8; stroke-linejoin: miter; stroke-linecap: square"/>
   </g>
   <g id="patch_5">
    <path d="M 47.6525 382.0375 
L 699.0525 382.0375 
" style="fill: none; stroke: #000000; stroke-width: 0.8; stroke-linejoin: miter; stroke-linecap: square"/>
   </g>
   <g id="patch_6">
    <path d="M 47.6525 39.3575 
L 699.0525 39.3575 
" style="fill: none; stroke: #000000; stroke-width: 0.8; stroke-linejoin: miter; stroke-linecap: square"/>
   </g>
   <g id="text_15">
    <!-- Model Loss Convergence Curve -->
    <g transform="translate(232.71125 19.3575) scale(0.16 -0.16)">
     <defs>
      <path id="DejaVuSans-Bold-4d" d="M 588 4666 
L 2119 4666 
L 3181 2169 
L 4250 4666 
L 5778 4666 
L 5778 0 
L 4641 0 
L 4641 3413 
L 3566 897 
L 2803 897 
L 1728 3413 
L 1728 0 
L 588 0 
L 588 4666 
z
" transform="scale(0.015625)"/>
      <path id="DejaVuSans-Bold-64" d="M 2919 2988 
L 2919 4863 
L 4044 4863 
L 4044 0 
L 2919 0 
L 2919 506 
Q 2688 197 2409 53 
Q 2131 -91 1766 -91 
Q 1119 -91 703 423 
Q 288 938 288 1747 
Q 288 2556 703 3070 
Q 1119 3584 1766 3584 
Q 2128 3584 2408 3439 
Q 2688 3294 2919 2988 
z
M 2181 722 
Q 2541 722 2730 984 
Q 2919 1247 2919 1747 
Q 2919 2247 2730 2509 
Q 2541 2772 2181 2772 
Q 1825 2772 1636 2509 
Q 1447 2247 1447 1747 
Q 1447 1247 1636 984 
Q 1825 722 2181 722 
z
" transform="scale(0.015625)"/>
      <path id="DejaVuSans-Bold-65" d="M 4031 1759 
L 4031 1441 
L 1416 1441 
Q 1456 1047 1700 850 
Q 1944 653 2381 653 
Q 2734 653 3104 758 
Q 3475 863 3866 1075 
L 3866 213 
Q 3469 63 3072 -14 
Q 2675 -91 2278 -91 
Q 1328 -91 801 392 
Q 275 875 275 1747 
Q 275 2603 792 3093 
Q 1309 3584 2216 3584 
Q 3041 3584 3536 3087 
Q 4031 2591 4031 1759 
z
M 2881 2131 
Q 2881 2450 2695 2645 
Q 2509 2841 2209 2841 
Q 1884 2841 1681 2658 
Q 1478 2475 1428 2131 
L 2881 2131 
z
" transform="scale(0.015625)"/>
      <path id="DejaVuSans-Bold-6c" d="M 538 4863 
L 1656 4863 
L 1656 0 
L 538 0 
L 538 4863 
z
" transform="scale(0.015625)"/>
      <path id="DejaVuSans-Bold-20" transform="scale(0.015625)"/>
      <path id="DejaVuSans-Bold-43" d="M 4288 256 
Q 3956 84 3597 -3 
Q 3238 -91 2847 -91 
Q 1681 -91 1000 561 
Q 319 1213 319 2328 
Q 319 3447 1000 4098 
Q 1681 4750 2847 4750 
Q 3238 4750 3597 4662 
Q 3956 4575 4288 4403 
L 4288 3438 
Q 3953 3666 3628 3772 
Q 3303 3878 2944 3878 
Q 2300 3878 1931 3465 
Q 1563 3053 1563 2328 
Q 1563 1606 1931 1193 
Q 2300 781 2944 781 
Q 3303 781 3628 887 
Q 3953 994 4288 1222 
L 4288 256 
z
" transform="scale(0.015625)"/>
      <path id="DejaVuSans-Bold-6e" d="M 4056 2131 
L 4056 0 
L 2931 0 
L 2931 347 
L 2931 1631 
Q 2931 2084 2911 2256 
Q 2891 2428 2841 2509 
Q 2775 2619 2662 2680 
Q 2550 2741 2406 2741 
Q 2056 2741 1856 2470 
Q 1656 2200 1656 1722 
L 1656 0 
L 538 0 
L 538 3500 
L 1656 3500 
L 1656 2988 
Q 1909 3294 2193 3439 
Q 2478 3584 2822 3584 
Q 3428 3584 3742 3212 
Q 4056 2841 4056 2131 
z
" transform="scale(0.015625)"/>
      <path id="DejaVuSans-Bold-76" d="M 97 3500 
L 1216 3500 
L 2088 1081 
L 2956 3500 
L 4078 3500 
L 2700 0 
L 1472 0 
L 97 3500 
z
" transform="scale(0.015625)"/>
      <path id="DejaVuSans-Bold-72" d="M 3138 2547 
Q 2991 2616 2845 2648 
Q 2700 2681 2553 2681 
Q 2122 2681 1889 2404 
Q 1656 2128 1656 1613 
L 1656 0 
L 538 0 
L 538 3500 
L 1656 3500 
L 1656 2925 
Q 1872 3269 2151 3426 
Q 2431 3584 2822 3584 
Q 2878 3584 2943 3579 
Q 3009 3575 3134 3559 
L 3138 2547 
z
" transform="scale(0.015625)"/>
      <path id="DejaVuSans-Bold-67" d="M 2919 594 
Q 2688 288 2409 144 
Q 2131 0 1766 0 
Q 1125 0 706 504 
Q 288 1009 288 1791 
Q 288 2575 706 3076 
Q 1125 3578 1766 3578 
Q 2131 3578 2409 3434 
Q 2688 3291 2919 2981 
L 2919 3500 
L 4044 3500 
L 4044 353 
Q 4044 -491 3511 -936 
Q 2978 -1381 1966 -1381 
Q 1638 -1381 1331 -1331 
Q 1025 -1281 716 -1178 
L 716 -306 
Q 1009 -475 1290 -558 
Q 1572 -641 1856 -641 
Q 2406 -641 2662 -400 
Q 2919 -159 2919 353 
L 2919 594 
z
M 2181 2772 
Q 1834 2772 1640 2515 
Q 1447 2259 1447 1791 
Q 1447 1309 1634 1061 
Q 1822 813 2181 813 
Q 2531 813 2725 1069 
Q 2919 1325 2919 1791 
Q 2919 2259 2725 2515 
Q 2531 2772 2181 2772 
z
" transform="scale(0.015625)"/>
      <path id="DejaVuSans-Bold-75" d="M 500 1363 
L 500 3500 
L 1625 3500 
L 1625 3150 
Q 1625 2866 1622 2436 
Q 1619 2006 1619 1863 
Q 1619 1441 1641 1255 
Q 1663 1069 1716 984 
Q 1784 875 1895 815 
Q 2006 756 2150 756 
Q 2500 756 2700 1025 
Q 2900 1294 2900 1772 
L 2900 3500 
L 4019 3500 
L 4019 0 
L 2900 0 
L 2900 506 
Q 2647 200 2364 54 
Q 2081 -91 1741 -91 
Q 1134 -91 817 281 
Q 500 653 500 1363 
z
" transform="scale(0.015625)"/>
     </defs>
     <use xlink:href="#DejaVuSans-Bold-4d"/>
     <use xlink:href="#DejaVuSans-Bold-6f" x="99.511719"/>
     <use xlink:href="#DejaVuSans-Bold-64" x="168.212891"/>
     <use xlink:href="#DejaVuSans-Bold-65" x="239.794922"/>
     <use xlink:href="#DejaVuSans-Bold-6c" x="307.617188"/>
     <use xlink:href="#DejaVuSans-Bold-20" x="341.894531"/>
     <use xlink:href="#DejaVuSans-Bold-4c" x="376.708984"/>
     <use xlink:href="#DejaVuSans-Bold-6f" x="440.429688"/>
     <use xlink:href="#DejaVuSans-Bold-73" x="509.130859"/>
     <use xlink:href="#DejaVuSans-Bold-73" x="568.652344"/>
     <use xlink:href="#DejaVuSans-Bold-20" x="628.173828"/>
     <use xlink:href="#DejaVuSans-Bold-43" x="662.988281"/>
     <use xlink:href="#DejaVuSans-Bold-6f" x="736.376953"/>
     <use xlink:href="#DejaVuSans-Bold-6e" x="805.078125"/>
     <use xlink:href="#DejaVuSans-Bold-76" x="876.269531"/>
     <use xlink:href="#DejaVuSans-Bold-65" x="941.455078"/>
     <use xlink:href="#DejaVuSans-Bold-72" x="1009.277344"/>
     <use xlink:href="#DejaVuSans-Bold-67" x="1058.59375"/>
     <use xlink:href="#DejaVuSans-Bold-65" x="1130.175781"/>
     <use xlink:href="#DejaVuSans-Bold-6e" x="1197.998047"/>
     <use xlink:href="#DejaVuSans-Bold-63" x="1269.189453"/>
     <use xlink:href="#DejaVuSans-Bold-65" x="1328.466797"/>
     <use xlink:href="#DejaVuSans-Bold-20" x="1396.289062"/>
     <use xlink:href="#DejaVuSans-Bold-43" x="1431.103516"/>
     <use xlink:href="#DejaVuSans-Bold-75" x="1504.492188"/>
     <use xlink:href="#DejaVuSans-Bold-72" x="1575.683594"/>
     <use xlink:href="#DejaVuSans-Bold-76" x="1625"/>
     <use xlink:href="#DejaVuSans-Bold-65" x="1690.185547"/>
    </g>
   </g>
   <g id="legend_1">
    <g id="patch_7">
     <path d="M 595.3325 86.185 
L 692.6525 86.185 
Q 695.0525 86.185 695.0525 83.785 
L 695.0525 49.7575 
Q 695.0525 47.3575 692.6525 47.3575 
L 595.3325 47.3575 
Q 592.9325 47.3575 592.9325 49.7575 
L 592.9325 83.785 
Q 592.9325 86.185 595.3325 86.185 
z
" style="fill: #4c4c4c; opacity: 0.5; stroke: #4c4c4c; stroke-linejoin: miter"/>
    </g>
    <g id="patch_8">
     <path d="M 593.3325 84.185 
L 690.6525 84.185 
Q 693.0525 84.185 693.0525 81.785 
L 693.0525 47.7575 
Q 693.0525 45.3575 690.6525 45.3575 
L 593.3325 45.3575 
Q 590.9325 45.3575 590.9325 47.7575 
L 590.9325 81.785 
Q 590.9325 84.185 593.3325 84.185 
z
" style="fill: #ffffff; stroke: #cccccc; stroke-linejoin: miter"/>
    </g>
    <g id="line2d_27">
     <path d="M 595.7325 55.075625 
L 607.7325 55.075625 
L 619.7325 55.075625 
" style="fill: none; stroke: #2e86ab; stroke-width: 2.5; stroke-linecap: square"/>
     <g>
      <use xlink:href="#m221dbbfab5" x="607.7325" y="55.075625" style="fill: #2e86ab; stroke: #2e86ab"/>
     </g>
    </g>
    <g id="text_16">
     <!-- Train Loss -->
     <g transform="translate(629.3325 59.275625) scale(0.12 -0.12)">
      <defs>
       <path id="DejaVuSans-54" d="M -19 4666 
L 3928 4666 
L 3928 4134 
L 2272 4134 
L 2272 0 
L 1638 0 
L 1638 4134 
L -19 4134 
L -19 4666 
z
" transform="scale(0.015625)"/>
       <path id="DejaVuSans-72" d="M 2631 2963 
Q 2534 3019 2420 3045 
Q 2306 3072 2169 3072 
Q 1681 3072 1420 2755 
Q 1159 2438 1159 1844 
L 1159 0 
L 581 0 
L 581 3500 
L 1159 3500 
L 1159 2956 
Q 1341 3275 1631 3429 
Q 1922 3584 2338 3584 
Q 2397 3584 2469 3576 
Q 2541 3569 2628 3553 
L 2631 2963 
z
" transform="scale(0.015625)"/>
       <path id="DejaVuSans-61" d="M 2194 1759 
Q 1497 1759 1228 1600 
Q 959 1441 959 1056 
Q 959 750 1161 570 
Q 1363 391 1709 391 
Q 2188 391 2477 730 
Q 2766 1069 2766 1631 
L 2766 1759 
L 2194 1759 
z
M 3341 1997 
L 3341 0 
L 2766 0 
L 2766 531 
Q 2569 213 2275 61 
Q 1981 -91 1556 -91 
Q 1019 -91 701 211 
Q 384 513 384 1019 
Q 384 1609 779 1909 
Q 1175 2209 1959 2209 
L 2766 2209 
L 2766 2266 
Q 2766 2663 2505 2880 
Q 2244 3097 1772 3097 
Q 1472 3097 1187 3025 
Q 903 2953 641 2809 
L 641 3341 
Q 956 3463 1253 3523 
Q 1550 3584 1831 3584 
Q 2591 3584 2966 3190 
Q 3341 2797 3341 1997 
z
" transform="scale(0.015625)"/>
       <path id="DejaVuSans-69" d="M 603 3500 
L 1178 3500 
L 1178 0 
L 603 0 
L 603 3500 
z
M 603 4863 
L 1178 4863 
L 1178 4134 
L 603 4134 
L 603 4863 
z
" transform="scale(0.015625)"/>
       <path id="DejaVuSans-6e" d="M 3513 2113 
L 3513 0 
L 2938 0 
L 2938 2094 
Q 2938 2591 2744 2837 
Q 2550 3084 2163 3084 
Q 1697 3084 1428 2787 
Q 1159 2491 1159 1978 
L 1159 0 
L 581 0 
L 581 3500 
L 1159 3500 
L 1159 2956 
Q 1366 3272 1645 3428 
Q 1925 3584 2291 3584 
Q 2894 3584 3203 3211 
Q 3513 2838 3513 2113 
z
" transform="scale(0.015625)"/>
       <path id="DejaVuSans-20" transform="scale(0.015625)"/>
       <path id="DejaVuSans-4c" d="M 628 4666 
L 1259 4666 
L 1259 531 
L 3531 531 
L 3531 0 
L 628 0 
L 628 4666 
z
" transform="scale(0.015625)"/>
       <path id="DejaVuSans-6f" d="M 1959 3097 
Q 1497 3097 1228 2736 
Q 959 2375 959 1747 
Q 959 1119 1226 758 
Q 1494 397 1959 397 
Q 2419 397 2687 759 
Q 2956 1122 2956 1747 
Q 2956 2369 2687 2733 
Q 2419 3097 1959 3097 
z
M 1959 3584 
Q 2709 3584 3137 3096 
Q 3566 2609 3566 1747 
Q 3566 888 3137 398 
Q 2709 -91 1959 -91 
Q 1206 -91 779 398 
Q 353 888 353 1747 
Q 353 2609 779 3096 
Q 1206 3584 1959 3584 
z
" transform="scale(0.015625)"/>
       <path id="DejaVuSans-73" d="M 2834 3397 
L 2834 2853 
Q 2591 2978 2328 3040 
Q 2066 3103 1784 3103 
Q 1356 3103 1142 2972 
Q 928 2841 928 2578 
Q 928 2378 1081 2264 
Q 1234 2150 1697 2047 
L 1894 2003 
Q 2506 1872 2764 1633 
Q 3022 1394 3022 966 
Q 3022 478 2636 193 
Q 2250 -91 1575 -91 
Q 1294 -91 989 -36 
Q 684 19 347 128 
L 347 722 
Q 666 556 975 473 
Q 1284 391 1588 391 
Q 1994 391 2212 530 
Q 2431 669 2431 922 
Q 2431 1156 2273 1281 
Q 2116 1406 1581 1522 
L 1381 1569 
Q 847 1681 609 1914 
Q 372 2147 372 2553 
Q 372 3047 722 3315 
Q 1072 3584 1716 3584 
Q 2034 3584 2315 3537 
Q 2597 3491 2834 3397 
z
" transform="scale(0.015625)"/>
      </defs>
      <use xlink:href="#DejaVuSans-54"/>
      <use xlink:href="#DejaVuSans-72" x="46.333984"/>
      <use xlink:href="#DejaVuSans-61" x="87.447266"/>
      <use xlink:href="#DejaVuSans-69" x="148.726562"/>
      <use xlink:href="#DejaVuSans-6e" x="176.509766"/>
      <use xlink:href="#DejaVuSans-20" x="239.888672"/>
      <use xlink:href="#DejaVuSans-4c" x="271.675781"/>
      <use xlink:href="#DejaVuSans-6f" x="325.638672"/>
      <use xlink:href="#DejaVuSans-73" x="386.820312"/>
      <use xlink:href="#DejaVuSans-73" x="438.919922"/>
     </g>
    </g>
    <g id="line2d_28">
     <path d="M 595.7325 72.689375 
L 607.7325 72.689375 
L 619.7325 72.689375 
" style="fill: none; stroke: #a23b72; stroke-width: 2.5; stroke-linecap: square"/>
     <g>
      <use xlink:href="#mf46094b8b2" x="607.7325" y="72.689375" style="fill: #a23b72; stroke: #a23b72; stroke-linejoin: miter"/>
     </g>
    </g>
    <g id="text_17">
     <!-- Val Loss -->
     <g transform="translate(629.3325 76.889375) scale(0.12 -0.12)">
      <defs>
       <path id="DejaVuSans-56" d="M 1831 0 
L 50 4666 
L 709 4666 
L 2188 738 
L 3669 4666 
L 4325 4666 
L 2547 0 
L 1831 0 
z
" transform="scale(0.015625)"/>
       <path id="DejaVuSans-6c" d="M 603 4863 
L 1178 4863 
L 1178 0 
L 603 0 
L 603 4863 
z
" transform="scale(0.015625)"/>
      </defs>
      <use xlink:href="#DejaVuSans-56"/>
      <use xlink:href="#DejaVuSans-61" x="60.658203"/>
      <use xlink:href="#DejaVuSans-6c" x="121.9375"/>
      <use xlink:href="#DejaVuSans-20" x="149.720703"/>
      <use xlink:href="#DejaVuSans-4c" x="181.507812"/>
      <use xlink:href="#DejaVuSans-6f" x="235.470703"/>
      <use xlink:href="#DejaVuSans-73" x="296.652344"/>
      <use xlink:href="#DejaVuSans-73" x="348.751953"/>
     </g>
    </g>
   </g>
  </g>
 </g>
 <defs>
  <clipPath id="p7c4cc65589">
   <rect x="47.6525" y="39.3575" width="651.4" height="342.68"/>
  </clipPath>
 </defs>
</svg>
